<?xml version="1.0" encoding="UTF-8"?>
<svg id="_Слой_2" data-name="Слой 2" xmlns="http://www.w3.org/2000/svg" viewBox="0 0 42 42">
  <defs>
    <style>
      .cls-1 {
        fill: #fff;
      }

      .cls-1, .cls-2 {
        stroke-width: 2px;
      }

      .cls-1, .cls-2, .cls-3 {
        stroke: #fff;
        stroke-miterlimit: 10;
      }

      .cls-2 {
        fill: none;
      }
    </style>
  </defs>
  <path class="cls-2" d="M28,30.5c0,4.42-3.58,8-8,8s-8-3.58-8-8c0-2.96,1.61-5.55,4-6.92V7.5c0-2.2,1.8-4,4-4,1.1,0,2.1,.45,2.82,1.18,.73,.72,1.18,1.72,1.18,2.82V23.58c2.39,1.37,4,3.96,4,6.92Z"/>
  <circle class="cls-1" cx="20" cy="30.5" r="3.5"/>
  <rect class="cls-3" x="19.5" y="14.5" width="1" height="12" rx=".5" ry=".5"/>
  <rect class="cls-3" x="27.5" y="6.5" width="5" height="1" rx=".5" ry=".5"/>
  <rect class="cls-3" x="27.5" y="10.5" width="5" height="1" rx=".5" ry=".5"/>
  <rect class="cls-3" x="27.5" y="14.5" width="5" height="1" rx=".5" ry=".5"/>
  <rect class="cls-3" x="27.5" y="18.5" width="5" height="1" rx=".5" ry=".5"/>
</svg>