<?xml version="1.0" encoding="UTF-8"?>
<svg id="_Слой_3" data-name="Слой 3" xmlns="http://www.w3.org/2000/svg" viewBox="0 0 41 40">
  <defs>
    <style>
      .cls-1 {
        fill: none;
        stroke: #FFFFFF;
        stroke-miterlimit: 10;
        stroke-width: 2px;
      }

      .cls-2 {
        fill: #FFFFFF;
      }
    </style>
  </defs>
  <path class="cls-1" d="M37.5,28.5c0,4.14-2.69,6-6,6s-6-1.86-6-6,5.44-12.17,5.44-12.17c.31-.46,.81-.46,1.12,0,0,0,5.44,8.03,5.44,12.17Z"/>
  <path class="cls-2" d="M2.74,13.8c4.56,3,10.79,.01,15-2.29,2.39-1.31,4.78-2.73,7.47-3.3s5.26,.18,7.53,1.59c1.65,1.02,3.15-1.57,1.51-2.59-2.12-1.31-4.61-2.2-7.12-2.21-2.75,0-5.39,1.04-7.8,2.25s-4.74,2.77-7.31,3.7c-2.42,.87-5.45,1.79-7.77,.27-1.62-1.06-3.12,1.53-1.51,2.59h0Z"/>
  <path class="cls-2" d="M3.17,22.75c4.7,1.49,9.74,.89,14.2-1.08,2.67-1.18,5.28-2.56,7.89-3.87,1.73-.86,.21-3.45-1.51-2.59-2.32,1.16-4.64,2.42-7.01,3.47-4.1,1.8-8.42,2.56-12.77,1.18-1.84-.59-2.63,2.31-.8,2.89h0Z"/>
  <path class="cls-2" d="M2.82,31.93c6.5,3.06,13.71,.4,19.44-3.13,1.64-1.01,.14-3.61-1.51-2.59-4.68,2.89-10.99,5.68-16.41,3.13-.73-.34-1.62-.2-2.05,.54-.38,.65-.2,1.71,.54,2.05h0Z"/>
</svg>