<?xml version="1.0" encoding="UTF-8"?>
<svg id="_Слой_3" data-name="Слой 3" xmlns="http://www.w3.org/2000/svg" viewBox="0 0 38.75 30.75">
  <defs>
    <style>
      .cls-1, .cls-2, .cls-3 {
        fill: none;
      }

      .cls-1, .cls-2, .cls-3, .cls-4 {
        stroke: #fff;
        stroke-miterlimit: 10;
      }

      .cls-2 {
        stroke-width: .5px;
      }

      .cls-3 {
        stroke-width: 1.5px;
      }

      .cls-4 {
        fill: #fff;
      }
    </style>
  </defs>
  <path class="cls-1" d="M3,14.46v11.07c0,.26-.22,.46-.5,.46s-.5-.21-.5-.46V14.46c0-.26,.22-.46,.5-.46s.5,.21,.5,.46Z"/>
  <path class="cls-3" d="M37,22c.17,2.5,.33,5,.5,7.5h-6v-3c0-2.14-2.1-3.89-4.74-3.99-1.19,2.19-4.64,4.49-7.26,4.49-2.83,0-5.24-1.67-6.13-4H3v-7H14.5c-.31-.41-.5-.94-.5-1.5,0-.69,.28-1.32,.73-1.77,.22-.22,.48-.4,.77-.52,.31-.14,.65-.21,1-.21h7c1.38,0,2.5,1.12,2.5,2.5,0,.56,.08,2,.08,2h3.42c.73,.02,2.63,.17,4.5,1.5,2.01,1.42,2.77,3.32,3,4Z"/>
  <path class="cls-1" d="M23.5,10v2h-7c-.35,0-.69,.07-1,.21v-2.21c0-.83,.67-1.5,1.5-1.5h5c.83,0,1.5,.67,1.5,1.5Z"/>
  <rect class="cls-1" x="18.5" y="5.5" width="2" height="3"/>
  <ellipse class="cls-4" cx="19.5" cy="3" rx="2" ry="2.5"/>
  <ellipse class="cls-4" cx="12.5" cy="3" rx="3" ry="1.5"/>
  <rect class="cls-1" x="13.5" y="2.5" width="5" height="1" rx=".5" ry=".5"/>
  <ellipse class="cls-4" cx="26.5" cy="3" rx="3" ry="1.5"/>
  <rect class="cls-1" x="20.71" y="2.5" width="5" height="1" rx=".5" ry=".5" transform="translate(46.43 6) rotate(-180)"/>
  <path class="cls-1" d="M26.76,22.51c-.08-.01-.17-.01-.26-.01"/>
  <path class="cls-1" d="M26.08,16.5h-.58"/>
  <rect class="cls-2" x="30.5" y="29.5" width="8" height="1" rx=".5" ry=".5"/>
</svg>